<?xml version="1.0" encoding="UTF-8"?>
<svg version="1.1" viewBox="0 0 1920 1920" width="480" height="480" xmlns="http://www.w3.org/2000/svg">
<!-- <path transform="translate(0)" d="m0 0h1920v1920h-1920z" fill="#FFFFFE"/> -->
<path transform="translate(868,482)" d="m0 0h184l33 4 28 6 24 7 24 9 15 7 21 11 19 12 16 12 11 9 12 11 22 22 9 11 13 18 11 17 11 19 9 19 9 24 7 24 6 27 3 22 2 25v241l-4 13-6 8-9 8-9 5-13 2h-720l-13-4-9-6-5-5-4-5-4-8-2-6-1-47v-189l2-29 4-27 6-26 8-27 9-22 7-16 12-21 15-22 9-12 11-13 12-13 11-11 11-9 12-10 17-12 13-8 24-13 27-11 27-9 26-6 25-4z" fill="#E3423F"/>
<path transform="translate(598,1163)" d="m0 0h723l10 3 9 5 9 9 6 12 2 7v202l-2 15-4 12-6 11-11 12-8 7-16 8-18 4-52 1h-613l-16-3-12-5-12-7-14-14-8-14-5-15-1-7-1-36v-165l3-14 5-9 9-10 10-6 6-2z" fill="#E3423F"/>
<path transform="translate(954,596)" d="m0 0h10l21 3 18 6 16 8 12 8 10 8 7 8 10 14 8 16 6 16 3 16 1 19-2 17-5 19-7 16-7 12-11 13-10 10-13 9-17 9-20 6-10 2-10 1h-12l-21-3-16-5-14-6-12-8-10-8-12-12-9-13-8-15-6-17-3-15v-31l3-16 7-19 8-15 10-13 13-13 10-7 14-8 15-6 14-4z" fill="#FFFFFE"/>
<path transform="translate(927,330)" d="m0 0h54l23 1 32 4 22 5 16 5 16 7 15 9 12 11 9 11 8 14 6 13 2 6v8l-3 3-14-1-38-5-32-3-43-2-42-1h-28l-44 1-52 3-44 5-13 2h-13l-2-2v-9l8-20 9-14 11-12 10-9 15-9 20-8 13-4 26-5 25-3z" fill="#E3423F"/>
</svg>