<svg width="50" height="50" viewBox="0 0 50 50" fill="none" xmlns="http://www.w3.org/2000/svg">
<path d="M49.5131 20.1033H47.4994V19.9996H24.9997V29.9994H39.1283C37.067 35.8205 31.5284 39.9992 24.9997 39.9992C16.716 39.9992 9.99987 33.2831 9.99987 24.9995C9.99987 16.7159 16.716 9.9998 24.9997 9.9998C28.8234 9.9998 32.3021 11.4423 34.9508 13.7985L42.022 6.72737C37.557 2.5662 31.5846 0 24.9997 0C11.1936 0 0 11.1935 0 24.9995C0 38.8055 11.1936 49.999 24.9997 49.999C38.8058 49.999 49.9994 38.8055 49.9994 24.9995C49.9994 23.3233 49.8269 21.6871 49.5131 20.1033Z" fill="#FFC107"/>
<path d="M2.88086 13.3636L11.0946 19.3873C13.3171 13.8848 18.6995 9.99988 24.9983 9.99988C28.822 9.99988 32.3007 11.4424 34.9495 13.7986L42.0207 6.72742C37.5557 2.56622 31.5832 0 24.9983 0C15.3958 0 7.06834 5.42119 2.88086 13.3636Z" fill="#FF3D00"/>
<path d="M25.0003 50C31.4578 50 37.3252 47.5288 41.7615 43.5101L34.024 36.9627C31.4297 38.9356 28.2596 40.0027 25.0003 40.0001C18.4978 40.0001 12.9766 35.8539 10.8966 30.0677L2.74414 36.3489C6.88162 44.4451 15.2841 50 25.0003 50Z" fill="#4CAF50"/>
<path d="M49.5137 20.1034H47.4999V19.9996H24.9996V29.9997H39.1286C38.1426 32.7702 36.3665 35.1912 34.0198 36.9635L34.0235 36.961L41.7611 43.5085C41.2136 44.006 50 37.4997 50 24.9997C50 23.3234 49.8275 21.6871 49.5137 20.1034Z" fill="#1976D2"/>
</svg>
