<svg width="16" height="16" viewBox="0 0 16 16" fill="none" xmlns="http://www.w3.org/2000/svg">
<g clip-path="url(#clip0_151_177)">
<path d="M13.2323 2.62064L10.9528 0.34115C10.907 0.295044 10.8437 0.26667 10.7735 0.26667H3.42682C2.72838 0.26667 2.16016 0.834897 2.16016 1.53334V12.4267C2.16016 13.1251 2.72838 13.6933 3.42682 13.6933H6.21349V15.4667H6.72016V13.6933H10.5202C10.66 13.6933 10.7735 13.5801 10.7735 13.44V12.1733C10.7735 11.7021 11.097 11.3047 11.5335 11.1922V13.44V15.4667H12.0402V13.6933C12.7386 13.6933 13.3068 13.1251 13.3068 12.4267V2.8C13.3068 2.72983 13.2785 2.6665 13.2323 2.62064ZM11.0268 1.13155L12.4419 2.54667H11.0268V1.13155ZM12.8002 12.4267C12.8002 12.8457 12.4592 13.1867 12.0402 13.1867V10.9067C12.0402 10.7666 11.9267 10.6533 11.7868 10.6533C10.9485 10.6533 10.2668 11.3351 10.2668 12.1733V13.1867H3.42682C3.00781 13.1867 2.66682 12.8457 2.66682 12.4267V1.53334C2.66682 1.11432 3.00781 0.773337 3.42682 0.773337H10.5202V2.8C10.5202 2.9401 10.6336 3.05334 10.7735 3.05334H12.8002V12.4267Z" fill="#BDD9F2" fill-opacity="0.34"/>
<path d="M7.22627 1.78666H3.6796C3.53976 1.78666 3.42627 1.8999 3.42627 2.03999V5.58666C3.42627 5.72675 3.53976 5.83999 3.6796 5.83999H4.69294H6.21294H7.22627C7.36611 5.83999 7.4796 5.72675 7.4796 5.58666V2.03999C7.4796 1.8999 7.36611 1.78666 7.22627 1.78666ZM5.9596 5.33333H4.94627V4.82666C4.94627 4.54723 5.17351 4.31999 5.45294 4.31999C5.73236 4.31999 5.9596 4.54723 5.9596 4.82666V5.33333ZM5.1996 3.55999C5.1996 3.42015 5.31335 3.30666 5.45294 3.30666C5.59252 3.30666 5.70627 3.42015 5.70627 3.55999C5.70627 3.69983 5.59252 3.81333 5.45294 3.81333C5.31335 3.81333 5.1996 3.69983 5.1996 3.55999ZM6.97294 5.33333H6.46627V4.82666C6.46627 4.49454 6.30363 4.20219 6.05612 4.01726C6.15315 3.88958 6.21294 3.73226 6.21294 3.55999C6.21294 3.14098 5.87195 2.79999 5.45294 2.79999C5.03392 2.79999 4.69294 3.14098 4.69294 3.55999C4.69294 3.73226 4.75272 3.88958 4.84975 4.01726C4.60224 4.20219 4.4396 4.49454 4.4396 4.82666V5.33333H3.93294V2.29333H6.97294V5.33333Z" fill="#BDD9F2" fill-opacity="0.34"/>
<path d="M9.25348 2.54666H7.98682V3.05333H9.25348V2.54666Z" fill="#BDD9F2" fill-opacity="0.34"/>
<path d="M9.50682 3.56H7.98682V4.06666H9.50682V3.56Z" fill="#BDD9F2" fill-opacity="0.34"/>
<path d="M11.2803 3.56H10.0137V4.06666H11.2803V3.56Z" fill="#BDD9F2" fill-opacity="0.34"/>
<path d="M11.2802 4.57333H7.98682V5.08H11.2802V4.57333Z" fill="#BDD9F2" fill-opacity="0.34"/>
<path d="M6.72003 6.59999H4.69336V7.10666H6.72003V6.59999Z" fill="#BDD9F2" fill-opacity="0.34"/>
<path d="M8.74607 6.6H7.22607V7.10667H8.74607V6.6Z" fill="#BDD9F2" fill-opacity="0.34"/>
<path d="M11.7863 6.59999H9.25293V7.10666H11.7863V6.59999Z" fill="#BDD9F2" fill-opacity="0.34"/>
<path d="M5.70635 7.61333H3.67969V8.11999H5.70635V7.61333Z" fill="#BDD9F2" fill-opacity="0.34"/>
<path d="M10.267 7.61333H6.21362V8.11999H10.267V7.61333Z" fill="#BDD9F2" fill-opacity="0.34"/>
<path d="M11.7865 7.61333H10.7732V8.11999H11.7865V7.61333Z" fill="#BDD9F2" fill-opacity="0.34"/>
<path d="M4.69302 8.62666H3.67969V9.13333H4.69302V8.62666Z" fill="#BDD9F2" fill-opacity="0.34"/>
<path d="M8.24068 8.62666H5.20068V9.13333H8.24068V8.62666Z" fill="#BDD9F2" fill-opacity="0.34"/>
<path d="M11.7871 8.62666H8.74707V9.13333H11.7871V8.62666Z" fill="#BDD9F2" fill-opacity="0.34"/>
<path d="M4.69302 9.64H3.67969V10.1467H4.69302V9.64Z" fill="#BDD9F2" fill-opacity="0.34"/>
<path d="M8.24068 9.64H5.20068V10.1467H8.24068V9.64Z" fill="#BDD9F2" fill-opacity="0.34"/>
<path d="M11.7871 9.64H8.74707V10.1467H11.7871V9.64Z" fill="#BDD9F2" fill-opacity="0.34"/>
<path d="M5.95969 10.6533H3.67969V11.16H5.95969V10.6533Z" fill="#BDD9F2" fill-opacity="0.34"/>
<path d="M10.0127 10.6533H6.46606V11.16H10.0127V10.6533Z" fill="#BDD9F2" fill-opacity="0.34"/>
<path d="M4.69302 11.6667H3.67969V12.1733H4.69302V11.6667Z" fill="#BDD9F2" fill-opacity="0.34"/>
<path d="M9.50735 11.6667H5.20068V12.1733H9.50735V11.6667Z" fill="#BDD9F2" fill-opacity="0.34"/>
</g>
<defs>
<clipPath id="clip0_151_177">
<rect width="15.2" height="15.2" fill="white" transform="translate(0.133301 0.266663)"/>
</clipPath>
</defs>
</svg>
