<svg width="35" height="36" viewBox="0 0 35 36" fill="none" xmlns="http://www.w3.org/2000/svg">
<g clip-path="url(#clip0_249_4)">
<path d="M29.4728 6.14629L24.3439 1.01743C24.2407 0.913694 24.0982 0.849854 23.9403 0.849854H7.41033C5.83884 0.849854 4.56033 2.12836 4.56033 3.69985V28.2099C4.56033 29.7813 5.83884 31.0599 7.41033 31.0599H13.6803V35.0499H14.8203V31.0599H23.3703C23.685 31.0599 23.9403 30.8051 23.9403 30.4898V27.6399C23.9403 26.5797 24.6682 25.6853 25.6503 25.4322V30.4898V35.0499H26.7903V31.0599C28.3618 31.0599 29.6403 29.7813 29.6403 28.2099V6.54985C29.6403 6.39196 29.5765 6.24946 29.4728 6.14629ZM24.5103 2.79583L27.6943 5.97985H24.5103V2.79583ZM28.5003 28.2099C28.5003 29.1526 27.7331 29.9198 26.7903 29.9198V24.7899C26.7903 24.4746 26.535 24.2199 26.2203 24.2199C24.3342 24.2199 22.8003 25.7537 22.8003 27.6399V29.9198H7.41033C6.46755 29.9198 5.70033 29.1526 5.70033 28.2099V3.69985C5.70033 2.75707 6.46755 1.98985 7.41033 1.98985H23.3703V6.54985C23.3703 6.86506 23.6257 7.11985 23.9403 7.11985H28.5003V28.2099Z" fill="#BDD9F2"/>
<path d="M15.959 4.2699H7.97897C7.66433 4.2699 7.40897 4.52469 7.40897 4.8399V12.8199C7.40897 13.1351 7.66433 13.3899 7.97897 13.3899H10.259H13.679H15.959C16.2736 13.3899 16.529 13.1351 16.529 12.8199V4.8399C16.529 4.52469 16.2736 4.2699 15.959 4.2699ZM13.109 12.2499H10.829V11.1099C10.829 10.4812 11.3403 9.9699 11.969 9.9699C12.5977 9.9699 13.109 10.4812 13.109 11.1099V12.2499ZM11.399 8.2599C11.399 7.94526 11.6549 7.6899 11.969 7.6899C12.283 7.6899 12.539 7.94526 12.539 8.2599C12.539 8.57454 12.283 8.8299 11.969 8.8299C11.6549 8.8299 11.399 8.57454 11.399 8.2599ZM15.389 12.2499H14.249V11.1099C14.249 10.3626 13.883 9.70485 13.3261 9.28875C13.5444 9.00147 13.679 8.6475 13.679 8.2599C13.679 7.31712 12.9117 6.5499 11.969 6.5499C11.0262 6.5499 10.259 7.31712 10.259 8.2599C10.259 8.6475 10.3935 9.00147 10.6118 9.28875C10.0549 9.70485 9.68897 10.3626 9.68897 11.1099V12.2499H8.54897V5.4099H15.389V12.2499Z" fill="#BDD9F2"/>
<path d="M20.5206 5.97986H17.6706V7.11986H20.5206V5.97986Z" fill="#BDD9F2"/>
<path d="M21.0906 8.25989H17.6706V9.39989H21.0906V8.25989Z" fill="#BDD9F2"/>
<path d="M25.0809 8.25989H22.2309V9.39989H25.0809V8.25989Z" fill="#BDD9F2"/>
<path d="M25.0806 10.5399H17.6706V11.6799H25.0806V10.5399Z" fill="#BDD9F2"/>
<path d="M14.8203 15.0999H10.2603V16.2399H14.8203V15.0999Z" fill="#BDD9F2"/>
<path d="M19.379 15.0999H15.959V16.2399H19.379V15.0999Z" fill="#BDD9F2"/>
<path d="M26.2192 15.0999H20.5192V16.2399H26.2192V15.0999Z" fill="#BDD9F2"/>
<path d="M12.5395 17.3799H7.97952V18.5199H12.5395V17.3799Z" fill="#BDD9F2"/>
<path d="M22.8009 17.3799H13.6809V18.5199H22.8009V17.3799Z" fill="#BDD9F2"/>
<path d="M26.2198 17.3799H23.9398V18.5199H26.2198V17.3799Z" fill="#BDD9F2"/>
<path d="M10.2595 19.6599H7.97952V20.7999H10.2595V19.6599Z" fill="#BDD9F2"/>
<path d="M18.2415 19.6599H11.4015V20.7999H18.2415V19.6599Z" fill="#BDD9F2"/>
<path d="M26.2209 19.6599H19.3809V20.7999H26.2209V19.6599Z" fill="#BDD9F2"/>
<path d="M10.2595 21.9398H7.97952V23.0798H10.2595V21.9398Z" fill="#BDD9F2"/>
<path d="M18.2415 21.9398H11.4015V23.0798H18.2415V21.9398Z" fill="#BDD9F2"/>
<path d="M26.2209 21.9398H19.3809V23.0798H26.2209V21.9398Z" fill="#BDD9F2"/>
<path d="M13.1095 24.2198H7.97952V25.3598H13.1095V24.2198Z" fill="#BDD9F2"/>
<path d="M22.2287 24.2198H14.2487V25.3598H22.2287V24.2198Z" fill="#BDD9F2"/>
<path d="M10.2595 26.4999H7.97952V27.6399H10.2595V26.4999Z" fill="#BDD9F2"/>
<path d="M21.0915 26.4999H11.4015V27.6399H21.0915V26.4999Z" fill="#BDD9F2"/>
</g>
<defs>
<clipPath id="clip0_249_4">
<rect width="34.2" height="34.2" fill="white" transform="translate(0 0.849854)"/>
</clipPath>
</defs>
</svg>
